HIERARCHY
ROOT joint_Root
{
	OFFSET 0.0 0.0 0.0
	CHANNELS 6 Xposition Yposition Zposition Zrotation Xrotation Yrotation 
	JOINT Hips
	{
		OFFSET -17.1583 93.1646 452.98
		CHANNELS 6 Xposition Yposition Zposition Zrotation Xrotation Yrotation 
		JOINT Spine
		{
			OFFSET 15.7357 0.0 0.0
			CHANNELS 6 Xposition Yposition Zposition Zrotation Xrotation Yrotation 
			JOINT Chest
			{
				OFFSET 8.98455 -0.406207 0.0
				CHANNELS 6 Xposition Yposition Zposition Zrotation Xrotation Yrotation 
				JOINT Neck
				{
					OFFSET 16.3773 0.0 0.0
					CHANNELS 6 Xposition Yposition Zposition Zrotation Xrotation Yrotation 
					JOINT Head
					{
						OFFSET 6.45672 0.0 0.0
						CHANNELS 6 Xposition Yposition Zposition Zrotation Xrotation Yrotation 
						End Site
						{
							OFFSET 0.0 0.0 0.0
						}
					}
				}
				JOINT Shoulder_L
				{
					OFFSET 12.9942 -0.242716 4.98039
					CHANNELS 6 Xposition Yposition Zposition Zrotation Xrotation Yrotation 
					JOINT UpperArm_L
					{
						OFFSET 5.34809 0.0 0.0
						CHANNELS 6 Xposition Yposition Zposition Zrotation Xrotation Yrotation 
						JOINT LowerArm_L
						{
							OFFSET 24.3286 1.87007e-05 0.0
							CHANNELS 6 Xposition Yposition Zposition Zrotation Xrotation Yrotation 
							JOINT Hand_L
							{
								OFFSET 22.2916 0.0 0.0
								CHANNELS 6 Xposition Yposition Zposition Zrotation Xrotation Yrotation 
								End Site
								{
									OFFSET 0.0 0.0 0.0
								}
							}
						}
					}
				}
				JOINT Shoulder_R
				{
					OFFSET 12.9945 -0.242716 -4.98039
					CHANNELS 6 Xposition Yposition Zposition Zrotation Xrotation Yrotation 
					JOINT UpperArm_R
					{
						OFFSET -5.34813 0.0 0.0
						CHANNELS 6 Xposition Yposition Zposition Zrotation Xrotation Yrotation 
						JOINT LowerArm_R
						{
							OFFSET -24.3289 0.000322201 0.0
							CHANNELS 6 Xposition Yposition Zposition Zrotation Xrotation Yrotation 
							JOINT Hand_R
							{
								OFFSET -22.2915 -0.000108084 0.0
								CHANNELS 6 Xposition Yposition Zposition Zrotation Xrotation Yrotation 
								End Site
								{
									OFFSET 0.0 0.0 0.0
								}
							}
						}
					}
				}
			}
		}
		JOINT UpperLeg_L
		{
			OFFSET -2.19248 -6.46944 0.0
			CHANNELS 6 Xposition Yposition Zposition Zrotation Xrotation Yrotation 
			JOINT LowerLeg_L
			{
				OFFSET 39.0811 0.0 -1.23785e-05
				CHANNELS 6 Xposition Yposition Zposition Zrotation Xrotation Yrotation 
				JOINT Foot_L
				{
					OFFSET 40.9854 0.0 -1.26872e-05
					CHANNELS 6 Xposition Yposition Zposition Zrotation Xrotation Yrotation 
					JOINT Toes_L
					{
						OFFSET 11.7543 0.0 0.0
						CHANNELS 6 Xposition Yposition Zposition Zrotation Xrotation Yrotation 
						End Site
						{
							OFFSET 0.0 0.0 0.0
						}
					}
				}
			}
		}
		JOINT UpperLeg_R
		{
			OFFSET -2.19251 6.46944 0.0
			CHANNELS 6 Xposition Yposition Zposition Zrotation Xrotation Yrotation 
			JOINT LowerLeg_R
			{
				OFFSET -39.0811 -0.00228153 -0.0401928
				CHANNELS 6 Xposition Yposition Zposition Zrotation Xrotation Yrotation 
				JOINT Foot_R
				{
					OFFSET -40.9854 0.0 0.0
					CHANNELS 6 Xposition Yposition Zposition Zrotation Xrotation Yrotation 
					JOINT Toes_R
					{
						OFFSET -11.7543 0.0 0.0
						CHANNELS 6 Xposition Yposition Zposition Zrotation Xrotation Yrotation 
						End Site
						{
							OFFSET 0.0 0.0 0.0
						}
					}
				}
			}
		}
	}
}
MOTION
Frames:	4
Frame Time:	0.0333333
0.000000 0.000000 0.000000 0.000000 0.000000 -0.000000 -4.192820 91.581400 0.233533 85.592300 0.576758 9.647680 15.735700 0.000005 -0.000001 76.038500 85.447400 -73.887700 8.984550 -0.406207 -0.000000 1.118500 -2.320570 4.321310 16.377300 -0.000001 -0.000001 15.820200 5.849580 6.877680 6.456720 -0.000001 -0.000000 -7.812770 4.855620 21.734500 12.994200 -0.242716 4.980390 -92.245400 6.070450 -69.656400 5.348090 -0.000007 -0.000001 -78.975700 -15.721600 -7.822270 24.328600 0.000019 0.000005 34.095600 -34.078300 -129.616000 22.291600 -0.000001 0.000005 46.590200 5.007760 7.153900 12.994500 -0.242716 -4.980390 86.336400 8.966860 -67.666800 -5.348130 -0.000001 -0.000004 -71.466800 -5.380190 -8.985110 -24.328900 0.000322 -0.000009 12.034100 -13.615200 -137.835000 -22.291500 -0.000108 -0.000004 50.212400 5.651010 -15.113400 -2.192480 -6.469440 -0.000000 -175.230000 4.080560 1.942880 39.081100 -0.000007 -0.000012 0.407580 -0.739944 28.848200 40.985400 -0.000006 -0.000013 -0.704684 -0.151842 -76.622800 11.754300 -0.000000 0.000003 -0.000484 0.175404 -9.462080 -2.192510 6.469440 -0.000001 -172.463000 11.462500 -171.068000 -39.081100 -0.002282 -0.040193 0.169864 -0.536134 17.256500 -40.985400 0.000008 0.000006 6.960810 4.211260 -72.982600 -11.754300 -0.000006 -0.000006 -0.011523 0.282353 -5.098860
0.000000 0.000000 0.000000 0.000000 0.000000 -0.000000 -4.178900 91.580500 0.259714 85.626200 0.607415 9.613120 15.735700 0.000005 -0.000001 76.117000 85.458400 -74.021300 8.984550 -0.406207 -0.000000 1.098400 -2.300360 4.210450 16.377300 -0.000001 -0.000001 15.826300 5.832070 6.812470 6.456720 -0.000001 -0.000000 -7.878710 4.798570 21.627700 12.994200 -0.242716 4.980390 -92.265300 6.112500 -69.620300 5.348090 -0.000007 -0.000001 -78.920700 -15.961100 -7.771590 24.328600 0.000019 0.000005 33.839000 -33.782700 -129.672000 22.291600 -0.000001 0.000005 46.615000 5.011560 7.072420 12.994500 -0.242716 -4.980390 86.336000 8.980580 -67.695600 -5.348130 -0.000001 -0.000004 -71.397400 -5.306080 -8.879480 -24.328900 0.000322 -0.000009 11.890800 -13.392500 -137.725000 -22.291500 -0.000108 -0.000004 50.108700 5.650760 -15.088900 -2.192480 -6.469440 -0.000000 -175.261000 4.063880 1.908460 39.081100 -0.000007 -0.000012 0.403828 -0.733729 28.828400 40.985400 -0.000006 -0.000013 -0.703818 -0.166664 -76.552600 11.754300 -0.000000 0.000003 -0.000487 0.175454 -9.460040 -2.192510 6.469440 -0.000001 -172.492000 11.426000 -171.107000 -39.081100 -0.002282 -0.040193 0.171232 -0.539564 17.285800 -40.985400 0.000008 0.000006 6.948680 4.188500 -72.994000 -11.754300 -0.000006 -0.000006 -0.011742 0.283891 -5.035890
0.000000 0.000000 0.000000 0.000000 0.000000 -0.000000 -4.167480 91.594000 0.276437 85.612100 0.673112 9.515370 15.735700 0.000005 -0.000001 76.132000 85.480100 -74.066500 8.984550 -0.406207 -0.000000 1.055930 -2.286710 4.149150 16.377300 -0.000001 -0.000001 15.771800 5.780080 6.717630 6.456720 -0.000001 -0.000000 -7.883830 4.726830 21.485700 12.994200 -0.242716 4.980390 -92.301600 6.212910 -69.626200 5.348090 -0.000007 -0.000001 -78.869000 -16.226100 -7.790890 24.328600 0.000019 0.000005 33.981100 -33.763800 -129.507000 22.291600 -0.000001 0.000005 46.565300 5.002430 7.267500 12.994500 -0.242716 -4.980390 86.342000 8.973240 -67.711800 -5.348130 -0.000001 -0.000004 -71.369500 -5.198780 -8.848410 -24.328900 0.000322 -0.000009 12.000700 -13.392700 -137.456000 -22.291500 -0.000108 -0.000004 50.147800 5.649070 -14.928000 -2.192480 -6.469440 -0.000000 -175.240000 4.056900 1.854820 39.081100 -0.000007 -0.000012 0.404840 -0.737673 28.759300 40.985400 -0.000006 -0.000013 -0.669979 -0.073494 -76.573700 11.754300 -0.000000 0.000003 -0.000465 0.175122 -9.473510 -2.192510 6.469440 -0.000001 -172.480000 11.441600 -171.122000 -39.081100 -0.002282 -0.040193 0.168186 -0.534394 17.145200 -40.985400 0.000008 0.000006 6.935160 4.217180 -72.968100 -11.754300 -0.000006 -0.000006 -0.011416 0.281601 -5.129680
0.000000 0.000000 0.000000 0.000000 0.000000 -0.000000 -4.141120 91.596500 0.314723 85.627500 0.685762 9.502970 15.735700 0.000005 -0.000001 76.550600 85.486800 -74.537300 8.984550 -0.406207 -0.000000 1.055850 -2.216370 4.044020 16.377300 -0.000001 -0.000001 15.718300 5.719680 6.642640 6.456720 -0.000001 -0.000000 -7.898270 4.621980 21.379100 12.994200 -0.242716 4.980390 -92.303200 6.207140 -69.595500 5.348090 -0.000007 -0.000001 -78.858400 -16.302900 -7.745940 24.328600 0.000019 0.000005 34.068000 -33.621400 -129.311000 22.291600 -0.000001 0.000005 46.483700 4.996940 7.384270 12.994500 -0.242716 -4.980390 86.330800 9.013620 -67.740100 -5.348130 -0.000001 -0.000004 -71.320300 -5.177660 -8.730340 -24.328900 0.000322 -0.000009 12.059800 -13.340600 -137.202000 -22.291500 -0.000108 -0.000004 50.066200 5.649200 -14.940300 -2.192480 -6.469440 -0.000000 -175.261000 3.986990 1.886810 39.081100 -0.000007 -0.000012 0.402508 -0.734911 28.710300 40.985400 -0.000006 -0.000013 -0.634730 -0.035927 -76.532300 11.754300 -0.000000 0.000003 -0.000608 0.177304 -9.384860 -2.192510 6.469440 -0.000001 -172.515000 11.466600 -171.078000 -39.081100 -0.002282 -0.040193 0.167616 -0.534041 17.100000 -40.985400 0.000008 0.000006 6.899600 4.160230 -72.993800 -11.754300 -0.000006 -0.000006 -0.011630 0.283108 -5.067980
